<svg xmlns="http://www.w3.org/2000/svg" width="394" height="484" viewBox="0 0 394 484">
<g>
<path d="M 195.75 478.99 C188.83,473.88 186.56,470.12 191.54,472.02 C195.94,473.69 206.00,481.01 206.00,482.54 C206.00,485.21 202.57,484.02 195.75,478.99 ZM 204.36 455.61 C198.71,452.38 168.40,429.52 152.50,416.50 C109.23,381.08 68.05,339.28 50.46,312.92 C22.25,270.65 23.61,223.69 53.95,191.72 C70.60,174.18 86.71,165.75 109.05,162.89 C130.45,160.14 156.58,168.18 178.08,184.12 C182.29,187.24 190.18,194.05 195.62,199.25 C206.73,209.88 209.10,211.44 212.71,210.54 C214.10,210.19 220.79,204.55 227.57,198.01 C250.34,176.06 265.78,167.50 289.95,163.46 C309.23,160.24 326.55,162.97 344.85,172.14 C362.21,180.83 375.93,195.33 385.49,215.10 C397.05,239.02 396.69,266.87 384.47,292.83 C373.64,315.86 350.13,343.53 313.00,376.94 C278.98,407.57 225.33,451.75 217.03,455.98 C211.93,458.59 209.44,458.51 204.36,455.61 ZM 230.59 392.86 C232.12,391.33 233.58,388.40 234.07,385.86 C234.53,383.46 234.93,365.70 234.96,346.40 C234.98,324.06 235.39,310.18 236.07,308.22 C237.95,302.83 241.02,301.69 255.50,300.99 C262.65,300.65 269.51,299.82 270.74,299.15 C275.04,296.82 276.35,292.44 276.78,279.00 C277.22,264.81 276.12,259.89 271.77,256.66 C269.47,254.96 266.91,254.54 255.77,254.01 C236.82,253.11 235.63,252.04 234.70,234.90 C233.93,220.50 231.74,219.01 211.22,219.01 C197.76,219.00 193.05,220.20 190.90,224.17 C190.20,225.45 189.32,230.93 188.94,236.35 C187.86,251.68 185.19,253.84 167.22,253.94 C148.83,254.04 147.00,256.11 147.01,276.72 C147.02,299.06 147.92,300.13 167.55,300.96 C181.42,301.54 184.52,302.54 187.21,307.25 C188.18,308.94 188.63,319.55 189.00,349.65 C189.63,399.95 187.65,396.11 212.73,395.73 C227.71,395.50 228.00,395.46 230.59,392.86 ZM 31.98 332.25 C22.37,321.37 10.63,301.04 6.14,287.50 C0.25,269.71 -1.31,244.40 2.41,227.00 C11.25,185.73 37.31,155.94 76.43,142.40 C87.91,138.42 112.11,134.74 113.37,136.78 C114.37,138.40 111.89,139.64 105.00,140.95 C60.98,149.36 23.03,183.27 12.29,223.79 C10.02,232.34 9.71,235.53 9.66,250.50 C9.61,264.64 9.98,269.23 11.87,277.80 C16.15,297.20 21.85,310.82 32.44,326.98 C35.50,331.64 38.00,335.80 38.00,336.23 C38.00,338.07 35.88,336.67 31.98,332.25 ZM 211.00 178.71 C207.24,176.80 207.89,174.68 212.50,173.77 C215.17,173.24 219.84,170.46 226.50,165.41 C250.54,147.23 266.86,140.05 291.08,137.00 C302.10,135.62 306.50,135.89 306.50,137.97 C306.50,139.05 303.77,139.89 296.00,141.18 C271.50,145.26 251.46,154.28 228.27,171.67 C222.43,176.04 215.41,180.07 213.78,179.99 C213.63,179.98 212.38,179.40 211.00,178.71 ZM 209.76 129.25 C208.91,128.29 206.77,120.97 204.99,113.00 C198.44,83.58 195.44,79.89 171.80,72.07 C152.43,65.67 152.29,61.69 171.21,54.97 C183.38,50.65 187.25,48.67 192.12,44.27 C197.78,39.16 200.59,32.97 204.65,16.66 C208.38,1.69 209.14,-0.00 212.10,0.00 C215.01,0.00 216.64,3.55 219.93,17.00 C221.61,23.88 224.37,32.33 226.08,35.80 C229.95,43.67 235.27,47.41 249.70,52.38 C265.58,57.85 268.27,59.76 266.03,63.95 C265.11,65.66 263.03,66.65 244.50,74.15 C238.55,76.55 235.19,78.69 231.40,82.47 C225.60,88.27 223.98,92.31 218.98,113.49 C216.10,125.72 214.03,131.00 212.13,131.00 C211.68,131.00 210.61,130.21 209.76,129.25 ZM 93.07 116.82 C92.55,115.54 91.37,110.90 90.45,106.50 C87.52,92.53 84.90,89.16 72.75,83.63 C65.95,80.55 65.00,79.79 65.00,77.49 C65.00,75.18 65.99,74.42 73.29,71.04 C84.42,65.90 88.09,61.76 91.53,50.49 C95.27,38.23 98.23,37.93 101.47,49.50 C104.50,60.28 107.04,63.48 115.78,67.52 C127.87,73.11 128.46,73.46 128.83,75.36 C129.36,78.13 126.58,80.45 119.23,83.38 C107.78,87.94 105.85,90.51 101.55,106.88 C98.88,117.04 98.21,118.54 96.26,118.82 C94.68,119.04 93.74,118.45 93.07,116.82 ZM 323.11 116.21 C322.59,115.23 321.24,110.75 320.13,106.26 C317.74,96.67 315.02,90.95 311.55,88.22 C310.18,87.14 305.69,84.77 301.57,82.97 C290.19,77.96 290.33,75.63 302.34,70.79 C313.92,66.12 318.11,61.72 321.47,50.68 C325.73,36.72 328.28,36.76 332.57,50.85 C335.70,61.11 339.51,65.43 348.04,68.40 C356.90,71.49 361.00,73.86 361.00,75.90 C361.00,78.44 359.60,79.42 351.60,82.43 C337.71,87.66 335.49,90.20 331.41,105.59 C329.97,111.04 328.33,116.06 327.77,116.75 C326.32,118.54 324.23,118.29 323.11,116.21 ZM 208.66 367.87 C204.44,365.42 204.00,361.74 203.94,328.28 C203.90,306.42 203.51,295.41 202.69,293.00 C200.89,287.70 196.60,286.00 185.00,286.00 C172.70,286.00 168.50,284.22 168.50,279.00 C168.50,273.81 172.71,272.00 184.78,272.00 C195.12,272.00 200.12,270.51 202.09,266.83 C202.78,265.55 203.63,259.45 203.97,253.29 C204.52,243.31 204.85,241.79 206.97,239.54 C209.79,236.52 212.91,236.30 216.10,238.88 C218.21,240.59 218.47,241.80 219.03,252.63 C219.95,270.55 220.47,271.09 237.47,272.00 C250.59,272.70 254.22,273.92 255.28,277.98 C255.64,279.33 255.01,281.04 253.52,282.77 C251.30,285.36 250.76,285.47 238.20,286.03 C224.80,286.62 223.16,287.12 220.70,291.42 C219.86,292.88 219.35,304.09 219.00,328.84 L 218.50 364.18 L 215.69 366.59 C212.60,369.25 211.40,369.46 208.66,367.87 Z" fill="rgba(0,0,0,1)"/>
</g>
</svg>